<?xml version="1.0" encoding="utf-8"?>
<svg xmlns="http://www.w3.org/2000/svg" fill="none" height="624" width="755">
  <path d="M522.822 199.472c-1.179-.028 1.081.474 0 0-5.553 8.358-12.114 17.204-22.208 22.503 4.789-2.514 9.699-2.619 12.8-1.337-13.545 15.777-19.045 5.95-19.045 5.95-44.701 14.457-37.502-12.03-11.14-16.983 2.215-7.351 15.056-9.141 15.056-9.141-.864 3.135-4.132 7.709-9.235 8.669 13.339-.467 24.72-5.895 31.542-12.021-2.296-5.089 6.509-14.109 6.509-14.109.26 3.916 1.147 8.486-2.456 13.787 7.008-2.987 15.783-4.663 15.783-4.663s-7.888 11.606-17.606 7.345" fill="#0BE1FF"/>
  <path d="M506.896 148.666c4.869-.37 11.966-2.344 17.977-9.654 0 0-10.087-1.939-19.82 5.765a2 2 0 0 0-.765 1.148c-.111.458-.057.945.152 1.387.21.442.563.814 1.007 1.058s.953.349 1.449.296" fill="#000C2A"/>
  <path d="M524.065 139.956q.406-.456.807-.943s-3.782-.727-8.949.478c3.199-.186 5.98.084 8.142.465" fill="#fff"/>
  <path d="M544.157 106.249c-6.855 6.924-16.473 6.783-18.135 15.07-.183.446-.158.923.07 1.36s.647.813 1.196 1.07a4.1 4.1 0 0 0 1.831.362c12.012 3.46 15.439-2.829 26.74-4.902 0 0-7.06-2.47-17.415-1.431 5.729-6.041 5.713-11.529 5.713-11.529" fill="#000C2A"/>
  <path d="M542.086 108.085a22 22 0 0 0 2.07-1.836s.017 5.489-5.713 11.529c10.356-1.039 17.415 1.432 17.415 1.432a35 35 0 0 0-3.025.694c-2.312-.627-8.36-1.931-16.39-1.126 4.391-4.629 5.407-8.934 5.643-10.693" fill="#fff"/>
  <path d="M498.02 140.304c3.963-2.518 9.07-7.494 10.547-16.807 0 0-9.61 2.777-14.074 14.123a2.05 2.05 0 0 0-.071 1.377c.136.461.426.876.826 1.18s.887.481 1.387.504c.501.023.987-.109 1.385-.377" fill="#000C2A"/>
  <path d="M506.527 130.454c.901-1.995 1.618-4.3 2.04-6.957 0 0-.423.122-1.133.42a34.6 34.6 0 0 1-.907 6.537" fill="#fff"/>
  <path d="M486.321 155.849c-8.476-1.813 7.593-20.082 21.913-27.72 13.161-7.02 27.97-9.792 28.379-9.348s-8.265 8.371-17.904 18.325c-12.334 12.737-23.913 20.556-32.388 18.743" fill="#1433D6"/>
  <path d="M492.259 140.291c4.596-3.977 10.171-7.782 15.446-10.236 9.863-4.587 20.477-6.871 25.651-7.591 2.167-2.168 3.419-3.508 3.258-3.683-.41-.444-15.218 2.328-28.38 9.348-5.577 2.975-11.42 7.562-15.975 12.162" fill="#fff"/>
  <path d="M234.627 572.746c3.093 2.504 8.45 5.306 16.321 4.34 0 0-4.81-6.791-15.111-7.675a1.75 1.75 0 0 0-1.86 1.159 1.93 1.93 0 0 0 .65 2.176m47.075-4.272c-9.533-3.951-15.937-2.804-19.617-1.221a1.36 1.36 0 0 0-.762.844c-.124.387-.098.844.073 1.303.17.454.474.888.868 1.238 3.345 4.023 9.279 9.341 18.686 12.057 0 0-2.708-5.412-9.437-10.59 6.954-.372 10.189-3.631 10.189-3.631m-47.373-5.645c3.829.726 9.785.636 16.163-4.053 0 0-7.316-3.731-16.659.49a1.77 1.77 0 0 0-.856.776 1.88 1.88 0 0 0-.21 1.161c.056.403.239.781.521 1.074s.648.488 1.041.552" fill="#1433D6"/>
  <path d="M218.232 565.488c-3.932-5.815 16.355-7.644 29.326-4.155 11.92 3.205 22.303 9.849 22.282 10.341s-9.829.333-21.405.835c-14.811.643-26.27-1.205-30.203-7.021m-9.476-57.497a4.8 4.8 0 0 1-.618-1.774 26 26 0 0 1-3.114-.535c-3.128-.74-6.938-1.732-10.699-2.902a21.6 21.6 0 0 1 1.525 5.14c-4.738-2.941-6.911-5.25-7.887-6.847a1.8 1.8 0 0 1-.214-.601 28.7 28.7 0 0 1-7.104-3.803c-6.992-5.696-.1-12.543 8.619-6.488l2.153 1.541a6.1 6.1 0 0 1 2.389-.515c3.171-.002 7.362 2.729 7.362 2.729a40.5 40.5 0 0 1-5.056 1.15c4.626 3.431 9.412 7.097 12.49 9.439 1.646-2.455 8.208-.986 8.208-.986a22.2 22.2 0 0 1-5.549 2.884 230 230 0 0 0 5.166 5.723s-5.8-.647-7.671-4.155" fill="#1433D6"/>
  <path d="M736.731 150.076c-.035 1.59-.053 5.982-.231 7.924.721-.518 1.498-1.826 2.325-2.151-.935 2.599-1.299 4.693-2.77 4.693-.079.071.099-.039 0 0a14.2 14.2 0 0 1-1.108 3.832c-2.036 3.974-5.539.142-3.508-4.705a3.1 3.1 0 0 1-.496-1.103c-.328-1.536.561-3.847.561-3.847q.615 1.13 1.079 2.329c1.184-2.594 2.465-5.29 3.281-7.023-1.359-.543-1.326-3.872-1.326-3.872.766.699 1.43 1.504 1.97 2.389 1.239-1.652 2.238-3.093 2.238-3.093s.254 4.051-2.015 4.627" fill="#0BE1FF"/>
  <path d="M153.125 517.469s.731 4.787 16.243 5.719c0 0-4.011-5.33-8.038-6.747s-8.205 1.028-8.205 1.028" fill="#000C2A"/>
  <path d="M167.208 523.026q1.029.094 2.16.162s-4.01-5.329-8.038-6.746c-1.185-.418-2.384-.5-3.485-.409a8 8 0 0 1 2.155.436c3.336 1.174 6.293 5.208 7.208 6.557" fill="#fff"/>
  <path d="M174.321 542.509c3.215-2.398 14.679 0 14.679 0-2.682.776-7.249 2.058-10.042 2.054 2.318 4.82 2.795 10.093 2.795 10.093s-8.744-5.582-7.432-12.147" fill="#000C2A"/>
  <path d="M189 542.509s-11.465-2.398-14.679.001c2.336-1.744 8.503-.165 11.697.828 1.105-.289 2.137-.584 2.982-.829m-10.042 2.055c1.454 3.023 1.084 6.36.606 8.428 1.232 1.054 2.188 1.664 2.188 1.664s-.476-5.272-2.794-10.092" fill="#fff"/>
  <path d="M142.146 517.433c4.285 7.139 21.193 23.21 36.813 27.13-12.563-7.844-17.197-23.443-22.976-31.479-8.325-11.612-20.139-6.033-13.837 4.349" fill="#0BE1FF"/>
  <path d="M140.399 511.276c2.771-2.536 10.572-.488 16.101 7.224 1.397 1.942 2.7 4.036 4.049 6.205 4.06 6.527 8.545 13.736 17.316 19.564q.548.156 1.094.294c-8.802-5.496-13.711-14.798-17.85-22.638-1.768-3.351-3.396-6.435-5.126-8.841-6.445-8.99-14.981-7.677-15.584-1.808" fill="#fff"/>
  <path d="M149.479 526.349c.509 2.471 2.229 6.372 6.915 12.231 0 0 1.267-6.542-.384-10.481a9.1 9.1 0 0 0-3.292-3.869 2.08 2.08 0 0 0-2.336-.034 2.085 2.085 0 0 0-.903 2.153" fill="#000C2A"/>
  <path d="M156.01 528.099c1.219 2.91.086 7.195-.589 9.237q.463.607.973 1.244s1.267-6.541-.384-10.481" fill="#fff"/>
  <path d="M521.026 469.08c-1.309 1.203.754-1.61 0 0-14.592-3.959-30.81-7.47-47.511-3.453 7.923-1.905 13.591-6.661 15.833-11.193-31.015-4.431-27.491 12.166-27.491 12.166-65.014 27.998-30.556 50.868 4.236 30.308 9.81 6.132 26.141-4.59 26.141-4.59-4.094-2.695-12.338-4.634-19.075-.655 15.582-12.715 33.869-17.863 47.683-17.695 2.45 8.048 21.385 9.527 21.385 9.527-3.593-4.696-7.125-10.755-16.472-13.185 10.908-3.573 22.517-10.386 22.517-10.386s-20.464-5.321-27.246 9.156" fill="#1433D6"/>
  <path d="M103.862 435.667c-.521-.425.643.195 0 0 .693-5.674 1.131-11.931-1.275-17.963 1.141 2.861 3.227 4.725 5.044 5.319-.018-11.843-6.037-9.628-6.037-9.628-13.988-22.813-20.683-8.685-11.11 3.222-1.765 4.002 3.128 9.532 3.128 9.532.788-1.677 1.068-4.866-.785-7.172 5.6 5.143 8.513 11.707 9.196 16.885-2.878 1.351-2.409 8.516-2.409 8.516 1.563-1.599 3.639-3.247 4.044-6.876 1.925 3.888 5.102 7.864 5.102 7.864s.885-7.944-4.898-9.699" fill="#0BE1FF"/>
  <path d="M652.251 474.35c-.687 1.066.232-1.246 0 0-10.78-.113-22.601.374-33.405 6.143 5.126-2.736 8.184-7.035 8.917-10.565-22.197 2.508-16.787 13.328-16.787 13.328-39.839 30.986-11.958 40.585 8.362 20.154 7.869 2.471 17.215-7.857 17.215-7.857-3.309-1.126-9.346-.984-13.28 2.97 8.47-11.57 20.166-18.404 29.728-20.766 3.135 5.113 16.467 2.736 16.467 2.736-3.323-2.595-6.847-6.143-13.733-6.143 6.886-4.422 13.674-11.207 13.674-11.207s-15.076 0-17.158 11.207" fill="#1433D6"/>
  <path d="M360.108 602.28c1.996 2.255 6.099 5.289 14.447 8.579 0 0-2.581-7.541-6.636-10.65a10.9 10.9 0 0 0-5.711-2.054 2.49 2.49 0 0 0-2.453 1.348 2.49 2.49 0 0 0 .353 2.777" fill="#000C2A"/>
  <path d="M359.755 599.503a2.485 2.485 0 0 1 2.453-1.348 10.9 10.9 0 0 1 5.711 2.054c2.796 2.144 3.914 6.937 4.339 9.707q1.091.468 2.297.944s-2.581-7.542-6.636-10.651a10.9 10.9 0 0 0-5.711-2.054 2.485 2.485 0 0 0-2.453 1.348" fill="#fff"/>
  <path d="M362.187 587.86c2.978.483 8.068.242 16.618-2.483 0 0-6.769-4.216-11.874-4.069a10.86 10.86 0 0 0-5.722 2.022 2.485 2.485 0 0 0-1.053 2.596 2.5 2.5 0 0 0 2.031 1.934" fill="#000C2A"/>
  <path d="M360.156 585.927a2.49 2.49 0 0 1 1.053-2.597 10.85 10.85 0 0 1 5.722-2.021c5.105-.148 11.874 4.069 11.874 4.069q-1.255.399-2.412.73c-2.307-1.761-6.614-4.176-9.891-4.081-1.892.099-3.752.197-5.293 1.303a2.49 2.49 0 0 0-1.053 2.597" fill="#fff"/>
  <path d="M388.908 597.262c8.425 4.799 21.794-4.299 21.794-4.299l-14.867-.847 8.625-12.746s-23.976 13.093-15.552 17.892" fill="#000C2A"/>
  <path d="M389.092 590.611c2.277-2.038 5.113-3.492 7.408-4.611.827-.403 1.5-1 1 .5l-1.665 5.616 12.255 2.41c1.617-.887 2.612-1.563 2.612-1.563l-14.867-.847 8.625-12.746s-10.818 5.908-15.368 11.241" fill="#fff"/>
  <path d="M354.809 580.671c20.116 13.135 35.234 13.135 40.279 11.493-4.429 5.809-28.591 12.41-45.72 7.042-30.028-9.41-19.705-34.953 5.441-18.535" fill="#4ABEFF"/>
  <path d="M395.088 592.164c-5.044 1.642-20.162 1.642-40.279-11.492-11.073-7.23-19.271-6.323-22.416-2.24 3.416-2.638 10.728-2.382 20.607 4.068 15.315 9.999 28.73 13.26 36.488 13.522 2.648-1.231 4.614-2.564 5.6-3.858" fill="#fff"/>
  <path d="M554.912 144.987c.732-3.386 3.138-8.739 9.656-16.74 0 0 1.658 9.016-.657 14.418a12.5 12.5 0 0 1-4.57 5.275 2.861 2.861 0 0 1-4.429-2.953" fill="#000C2A"/>
  <path d="M562.936 130.305a96 96 0 0 1 1.632-2.057s1.144 6.221.205 11.424c-.177-3.232-.991-6.614-1.837-9.367" fill="#fff"/>
  <path d="M565.425 152.189c2.714-2.161 7.953-4.786 18.06-6.869 0 0-4.412 8.041-9.615 10.767a12.5 12.5 0 0 1-6.875 1.196 2.87 2.87 0 0 1-1.569-.617 2.87 2.87 0 0 1-.949-3.081c.169-.55.499-1.036.948-1.396" fill="#000C2A"/>
  <path d="M581.892 145.663q.775-.173 1.593-.342s-1.905 3.473-4.689 6.628c1.338-2.179 2.38-4.493 3.096-6.286" fill="#fff"/>
  <path d="M586.921 127.713c5.745-9.556 24.274-7.962 24.274-7.962l-14.43 9.221 15.827 7.923s-31.415.374-25.671-9.182" fill="#000C2A"/>
  <path d="M588.062 126.141c6.72-7.801 23.133-6.389 23.133-6.389l-3.173 2.027c-4.265-.366-14.389-.623-19.96 4.362m9.611 2.252-.908.58 15.827 7.923s-1.852.022-4.575-.081l-11.516-7.814z" fill="#fff"/>
  <path d="M567.438 163.837c12.774-24.499 23.08-33.643 29.062-34.837-7.712-3.33-30.803 4.287-44.956 19.316-24.81 26.346-.074 46.145 15.894 15.521" fill="#F4FEFF"/>
  <path d="M569.266 160.405a212 212 0 0 0-3.859 5.461c-6.18 9.035-12.631 12.936-17.678 13.311 5.465 1.128 13.295-3.037 19.709-15.34a226 226 0 0 1 1.828-3.432m19.667-27.105c-10.523.573-26.061 5.738-37.46 15.264q-.37.31-.729.619.391-.432.8-.866c14.153-15.03 37.244-22.647 44.957-19.317-2.043.408-4.59 1.743-7.568 4.3" fill="#fff"/>
  <path d="M386.815 450.925c3.483 2.176 10.022 4.554 22.209 5.624 0 0-6.294-8.86-12.799-11.355a14.83 14.83 0 0 0-8.261-.475 3.39 3.39 0 0 0-1.149 6.206" fill="#000C2A"/>
  <path d="M406.156 456.263q1.378.156 2.868.287s-3.759-5.292-8.47-8.849c2.209 2.613 4.1 5.708 5.602 8.562" fill="#fff"/>
  <path d="M383.953 431.267c4.081-.521 10.642-2.806 20.764-9.678 0 0-10.482-2.893-17.099-.723a14.8 14.8 0 0 0-6.698 4.857 3.395 3.395 0 0 0 1.063 5.197 3.4 3.4 0 0 0 1.97.347" fill="#000C2A"/>
  <path d="M383.718 422.969a15.7 15.7 0 0 1 4.883-1.683c4.272-.598 9.598.856 13.284 2.167q1.366-.869 2.832-1.864s-10.482-2.892-17.099-.723a14.8 14.8 0 0 0-3.9 2.103" fill="#fff"/>
  <path d="M422.526 433.217c12.872 3.014 26.828-14.057 26.828-14.057l-19.764 4.648L432.5 407s-22.846 23.204-9.974 26.217" fill="#000C2A"/>
  <path d="m445.58 423.167-17.08.834.613-13.307c1.95-2.234 3.387-3.693 3.387-3.693l-2.91 16.807 19.764-4.647s-1.421 1.737-3.774 4.006" fill="#fff"/>
  <path d="M371.524 424.724c31.385 9.385 51.517 2.876 57.476-1.224-3.542 9.31-32.942 27.949-57.415 27.562-42.9-.679-39.291-38.069-.061-26.338" fill="#F4FEFF"/>
  <path d="M429 423.501c-5.959 4.099-26.091 10.609-57.476 1.224-21.503-6.431-32.304 1.898-30.609 10.849 2.081-6.693 13.957-11.478 34.585-6.073 20.237 5.302 32.978 2.966 39.279 1.811 3.508-.643 5.021-.92 4.721.689a12 12 0 0 1-.646 2.235c5.319-3.914 9.026-7.791 10.146-10.735" fill="#fff"/>
  <path d="M522.305 579.603c4.983-.27 13.144-2.472 26.008-9.921 0 0-12.445-4.412-20.655-2.35a18 18 0 0 0-8.545 5.298 4.124 4.124 0 0 0 3.192 6.973" fill="#000C2A"/>
  <path d="M543.5 572.5c.782-.433 3.994-2.343 4.814-2.818 0 0-7.517-2.665-14.721-2.884 4.698.828 9.407 2.884 9.907 5.702" fill="#fff"/>
  <path d="M505.73 562.059c3.693-3.369 8.62-10.223 13.884-24.124 0 0-12.441 4.444-17.504 11.223a18 18 0 0 0-3.267 9.507 4.12 4.12 0 0 0 2.287 4.039 4.13 4.13 0 0 0 4.6-.645" fill="#000C2A"/>
  <path d="M512.131 553.867C513.5 550 514 545 511.396 541.742c4.32-2.415 8.218-3.807 8.218-3.807-2.614 6.903-5.145 12.068-7.483 15.932" fill="#fff"/>
  <path d="M545.44 537.057c14.901-5.994 16.854-32.712 16.854-32.712l-16.403 18.424-7.665-24.315s-7.687 44.597 7.214 38.603" fill="#000C2A"/>
  <path d="M537.098 506.719c.537-4.833 1.128-8.265 1.128-8.265l7.335 23.267zm19.895 18.059c4.499-9.46 5.301-20.433 5.301-20.433l-5.455 6.127c.706 2.244 2.112 8.07.154 14.306" fill="#fff"/>
  <path d="M488.805 564.235c37.755-12.589 53.318-32.212 56.379-40.449 2.981 11.729-13.323 49.883-37.924 66.591-43.124 29.286-65.65-10.406-18.455-26.142" fill="#F4FEFF"/>
  <path d="M545.184 523.786c-3.062 8.238-18.624 27.86-56.38 40.449q-.697.232-1.374.472c22.33-4.719 35.221-13.992 42.446-19.189 5.029-3.618 7.313-5.261 8.124-2.018 1.17 9.437-10.613 30.284-28.57 45.332 23.382-17.406 38.646-53.665 35.754-65.046" fill="#fff"/>
  <path d="M363.362 502.675s5.095 4.549 22.8-8.374c0 0-9.15-2.192-14.802-.115s-7.998 8.489-7.998 8.489" fill="#000C2A"/>
  <path d="M383.24 496.355a97 97 0 0 0 2.922-2.054s-9.15-2.192-14.802-.114c-1.323.486-2.465 1.21-3.438 2.033 6.486-3.17 12.724-1.049 15.318.135" fill="#fff"/>
  <path d="M351.389 512.502c11.074 3.913 34.511 1.987 49.378.227a50.6 50.6 0 0 0 11.533-2.733l-5.993-1.564c-10.704-3.411-30.274-9.545-43.779-13.09-19.485-5.148-27.319 11.532-11.139 17.16" fill="#B5F6FF"/>
  <path d="M342.767 504.473c.876-4.979 8.91-9.096 20.733-5.973 3.501.92 7.101 2.001 10.872 3.133 10.706 3.213 22.783 6.839 37.831 8.339l-5.896-1.539c-10.704-3.411-30.274-9.545-43.779-13.091-13.035-3.443-20.856 2.881-19.761 9.131" fill="#fff"/>
  <path d="M425.253 516.849s-6.013-2.986-12.958-6.875l-5.384 1.957c4.461 8.32 18.342 4.918 18.342 4.918" fill="#000C2A"/>
  <path d="M425.251 516.849s-6.012-2.986-12.958-6.875l-5.685 1.704c4.472 8.317 18.643 5.171 18.643 5.171" fill="#000C2A"/>
  <path clip-rule="evenodd" d="M412.293 509.975c1.232 3.989 5.745 6.401 8.159 7.434 2.768-.109 4.799-.56 4.799-.56s-6.012-2.986-12.958-6.874" fill="#fff" fill-rule="evenodd"/>
  <path d="M420.319 501.246s-12.657 1.686-14.001 7.183l5.982 1.567a41.7 41.7 0 0 0 8.019-8.75" fill="#000C2A"/>
  <path d="M420.319 501.246s-12.657 1.686-14.001 7.183l5.982 1.567a41.7 41.7 0 0 0 8.019-8.75" fill="#000C2A"/>
  <path d="M412.649 509.707a48.7 48.7 0 0 0 3.72-7.669 39 39 0 0 1 3.95-.791 41.7 41.7 0 0 1-7.67 8.46" fill="#fff"/>
  <path d="M367.373 515.608c2.773 2.23 8.149 4.926 18.509 7.087 0 0-4.5-8.251-9.835-11.052a12.85 12.85 0 0 0-7.055-1.249 2.942 2.942 0 0 0-1.619 5.214" fill="#000C2A"/>
  <path d="M383.847 522.25c-.541-1.774-1.327-3.931-2.401-5.946a43 43 0 0 1 4.436 6.391q-1.051-.22-2.035-.445" fill="#fff"/>
  <path d="M504.252 446.59c4.248 3.91 15.86.543 22.248-10.59 0 0-4.5 0-12.5 2 0 0-11.164 4.943-11.29 5.526-.127.584-.044 1.2.235 1.753.278.554.833.874 1.307 1.311" fill="#000C2A"/>
  <path d="M525.503 437.613q.517-.777.997-1.613s-3.116 0-8.772 1.152c3.329-.027 5.976.216 7.775.461" fill="#fff"/>
  <path d="M552.02 392.058c-9.475 9.429-19.313 4.679-22.519 19.64a2 2 0 0 0 .13 1.721c.302.547.844 1.009 1.548 1.319.695.306 1.51.447 2.33.403 15.142 3.307 18.511-4.495 33.727-7.018 0 0-9.017-2.916-22.105-1.288 7.075-7.825 6.889-14.777 6.889-14.777" fill="#000C2A"/>
  <path d="M548.407 395.033a24.6 24.6 0 0 0 3.613-2.975s.186 6.952-6.889 14.778c13.088-1.629 22.105 1.287 22.105 1.287-1.73.287-3.307.642-4.765 1.041-3.137-1.111-9.777-2.808-18.971-1.664 4.709-5.208 5.143-9.906 4.907-12.467" fill="#fff"/>
  <path d="M498.5 428c4.944-3.31 6-9.5 6.5-14 0 0-18.5 10.15-15.003 21.044-.218.553.113.292 0 0a2.94 2.94 0 0 0 1.082 1.471 3.16 3.16 0 0 0 1.773.597c.635.014 5.152-8.761 5.648-9.112" fill="#000C2A"/>
  <path d="M500.968 425.776c2.866-3.429 3.629-8.15 4.032-11.775 0 0-.971.532-2.425 1.484.087 3.252-.139 6.982-1.607 10.291" fill="#fff"/>
  <path d="M480.244 456.641c-10.793-2.041 9.013-25.671 26.923-35.78 16.461-9.291 35.137-13.251 35.67-12.7.532.55-10.218 10.854-22.129 23.757-15.24 16.508-29.672 26.763-40.464 24.723" fill="#0BE1FF"/>
  <path d="M490.043 433.967C506.533 421.486 525.166 413.531 528 417c2.667 3.264-3.293 10.197-13.909 21.733a179 179 0 0 0 6.618-6.815c5.038-5.459 9.87-10.452 13.727-14.439 5.26-5.437 8.708-9.001 8.401-9.318-.532-.551-19.209 3.409-35.67 12.7-5.888 3.323-11.98 8.108-17.124 13.106" fill="#fff"/>
  <path d="M102.458 346.993s9.846 5.384 12.231 14.833c0 0-5.717-5.469-4.964 3.621 0 0-7.986-16.956-7.267-18.454" fill="#000C2A"/>
  <path d="M114.689 361.827c-2.384-9.449-12.231-14.833-12.231-14.833s6.989 5.768 10.345 13.526c1.016.475 1.886 1.307 1.886 1.307" fill="#B5F6FF"/>
  <path d="M108.61 371.45c-2.762 5.717 3.775 14.048 3.775 14.048l-.106-9.75 8.71 5.07s-9.617-15.084-12.379-9.368" fill="#000C2A"/>
  <path d="M110.119 370.176c2.637-.24 6.723 6.211 8.502 9.264l2.367 1.378s-7.123-11.173-10.869-10.642m2.16 5.572.106 9.751s-.667-.85-1.485-2.193z" fill="#B5F6FF"/>
  <path d="M95.132 350.898s-3.823 5.11 1.448 12.433c0 0 1.524-4.671.37-9.41a6.04 6.04 0 0 0-1.818-3.023" fill="#000C2A"/>
  <path d="M91.792 336.19c.823-2.495 7.264 5.139 9.908 9.103-.994 2.497-3.399 6.155-8.702 4.61-2.845-8.443-1.206-13.713-1.206-13.713" fill="#B5F6FF"/>
  <path d="M96.269 350.209c3.083-.414 4.67-3.005 5.433-4.917 8.083 12.127 10.347 30.305 10.347 30.305-13.755-16.063-15.78-25.388-15.78-25.388" fill="#4ABEFF"/>
  <path d="M92.998 349.902a7.8 7.8 0 0 0 3.269.308s2.019 9.336 15.781 25.388c-11.488-9.91-16.743-18.846-19.05-25.696" fill="#1433D6"/>
  <path d="M107.824 358.087c.306.894.552 1.654.685 2.07-2.365 1.945-4.619 1.595-4.619 1.595a12.6 12.6 0 0 0 3.934-3.665m-7.97-3.567s2.887.448 5.554-2.488c0 0-.559-1.232-1.042-2.158 0 0-1.217 2.664-4.512 4.646m2.066 3.761s2.647.409 5.214-2.134a42 42 0 0 0-.871-2.19 12.3 12.3 0 0 1-4.343 4.324" fill="#B5F6FF"/>
  <path d="M97.876 355.14s-4.735 7.534 3.422 17.115c0 0 1.587-6.666-.553-13.12a8.4 8.4 0 0 0-2.87-3.995m-4.545-11.112a1.084 1.084 0 1 0 2.07.645 1.084 1.084 0 0 0-2.07-.645" fill="#000C2A"/>
  <path d="M96.268 342.939c.593.664 1.431.881 1.873.486s.318-1.254-.275-1.917c-.594-.664-1.432-.881-1.874-.486-.44.396-.318 1.254.275 1.917" fill="#fff"/>
  <path d="M714.654 354.865c3.846 1.135 11.346-.82 15.203-7.777 0 0-2.857 2.912-9.857 2.412-4.193-.5-6.231 3.085-6.31 3.45a1.65 1.65 0 0 0 .147 1.096c.174.346.461.633.817.819m29.852-34.081C741 325.5 731.481 327 730.433 333.059c-.136.356-.108.733.081 1.075s.528.631.967.825a3.2 3.2 0 0 0 1.456.251c8.563 0 12.063-3.71 21.079-4.386 0 0-5.636-1.822-13.815-.804 4.422-4.891 4.305-9.236 4.305-9.236M712 347.651c3.09-2.069 0-8.151 4.653-12.539 0 0-11.653 3.888-10.906 12.539 0 0 .354.686.676.919s.712.364 1.108.373 4.158-1.073 4.469-1.292" fill="#0BE1FF"/>
  <path d="M699.652 361.148c-6.745-1.276 5.633-16.044 16.826-22.362 10.288-5.806 16.689-5.63 17.022-5.286s-4.441 2.804-10 12c-4.441 8.804-17.103 16.923-23.848 15.648" fill="#0BE1FF"/>
  <path d="M179.202 466.985c-11.309 2.345-26.254-5.694-30.67-8.584 3.037 16.771 23.373 25.927 33.197 18.786-6.422.306-12.667-3.909-18.19-6.982 4.598 1.783 9.211 1.405 15.663-3.22" fill="#000C2A"/>
  <path d="M163.539 470.205c.752.419 1.517.858 2.294 1.305 4.933 2.832 10.349 5.942 15.896 5.677-1.611 1.172-3.506 1.905-5.561 2.237-6.951-2.458-9.893-5.968-11.881-8.34q-.394-.472-.748-.879m11.876-.874c-10.614-.47-23.039-8.414-26.883-10.93 4.416 2.89 19.361 10.93 30.67 8.585-1.336.957-2.593 1.733-3.787 2.345" fill="#fff"/>
  <path d="M140.75 434.197c4.482 2.797 10.409 8.37 12.727 18.944 0 0-10.604-2.991-16.308-15.809a2.495 2.495 0 0 1 3.581-3.135" fill="#000C2A"/>
  <path d="M151.633 452.43c-2.4-9.644-6.627-15.577-10.883-18.233 4.482 2.797 10.409 8.37 12.726 18.944 0 0-.702-.198-1.843-.711" fill="#fff"/>
  <path d="M128.414 444.147c4.049 3.389 9.129 9.733 9.976 20.518 0 0-17.89-13.665-12.936-20.693-.146-.513-.188.499 0 0-.447.29.187-.499 0 0a2.5 2.5 0 0 1 2.96.175" fill="#000C2A"/>
  <path d="M121.271 435.542c7.13-11.466 16.308-6.786 16.468-6.706a72 72 0 0 1 5.147 11.39 59.5 59.5 0 0 0 3.545 7.971c3.712 6.984 10.809 18.89 17.65 22.296.001-.004-33.029-6.775-42.81-34.951" fill="#4ABEFF"/>
  <path d="M144.239 448.653c-.654 1.396-3.406 4.912-9.491 4.998 5.017 1.533 8.703.441 9.491-4.998m-2.333-9.042c-1.213 2.488-5.682 8.592-13.497 7.825 6.013 3.608 11.026 2.143 13.497-7.825m-3.721-8.537c-.978 2.36-5.075 8.316-14.078 8.504 7.413 2.553 12.873.684 14.078-8.504" fill="#B5F6FF"/>
  <path d="M121.271 435.541c-2.485-7.174-3.471-15.709-2.028-25.876 0 0 10.128 4.349 18.495 19.174-.144-.08-9.336-4.767-16.467 6.702" fill="#1433D6"/>
  <path d="M121.273 435.541c-3.273-8.041-4.789-27.118-2.029-25.876 0 0 10.129 4.349 18.496 19.174-.144-.08-9.336-4.767-16.467 6.702" fill="#B5F6FF"/>
  <path d="M164.075 470.491c-6.84-3.409-15.176-13.976-18.887-20.957a60 60 0 0 1-3.546-7.971 72 72 0 0 0-5.148-11.391c-8.366-14.822-16.993-18.672-16.993-18.672-1.734-.78-1.882 5.728-.942 12.67-1.096-7.679-1.092-15.305.686-14.505 0 0 10.127 4.348 18.493 19.17l.001.001a72 72 0 0 1 5.147 11.39 60 60 0 0 0 3.546 7.971c3.712 6.984 10.809 18.89 17.649 22.296z" fill="#fff"/>
  <path d="M131.42 420.237c.687.786.848 1.769.359 2.195-.488.426-1.441.133-2.128-.653-.687-.787-.848-1.77-.36-2.196.489-.426 1.442-.133 2.129.654m-9.535 5.992c.273 1.007-.012 1.961-.638 2.131s-1.355-.51-1.629-1.517c-.274-1.008.012-1.962.638-2.132.626-.169 1.355.51 1.629 1.518m7.839 5.41c3.345 2.929 12.467 11.662 15.296 22.005 0 0-7.417-11.123-4.398-.023 0 0-9.875-15.844-11.847-21.337a.594.594 0 0 1 .221-.695.595.595 0 0 1 .728.05" fill="#000C2A"/>
  <path d="M126.195 422.437c1.573 3.393 2.549 6.283 2.18 6.453-.369.171-1.944-2.441-3.517-5.835-1.574-3.393-2.55-6.283-2.181-6.454s1.944 2.442 3.518 5.836" fill="#fff"/>
  <path d="M702.367 65.386s4.82.458 9.505-14.359c0 0-6.146 2.591-8.502 6.151-2.356 3.561-1.003 8.208-1.003 8.208" fill="#000C2A"/>
  <path d="M708.889 58.606c.758-1.921 1.422-4.251 1.901-7.076a23 23 0 0 1 1.082-.502c-1.004 3.176-2.015 5.65-2.983 7.578" fill="#fff"/>
  <path d="M729.015 54.087c-1.542-3.703 4.366-11.6 4.366-11.6.099 2.791-.196 4.806-.881 7.513 5.239-1.073 10.107-.16 10.107-.16s-7.545 7.119-13.592 4.247" fill="#000C2A"/>
  <path d="M741.454 50.814a18 18 0 0 0 1.153-.974s-4.868-.913-10.107.16c.685-2.707.98-4.722.881-7.513 0 0-.411.55-.988 1.426.056 2.575-.244 4.52-.893 7.087 4.694-.961 9.09-.329 9.954-.187" fill="#fff"/>
  <path d="M699.655 76.026C707.624 73.61 724.891 64.194 732.5 50c-10.67 10.272-24.487 7.9-33.69 11.547-13.291 5.243-10.76 18.06.845 14.48" fill="#B5F6FF"/>
  <path d="M731.816 51.221c-7.536 7.68-16.534 8.688-24.552 9.587-4.125.462-7.99.895-11.264 2.193a22 22 0 0 0-.566.232 20.6 20.6 0 0 1 3.376-1.686c3.115-1.234 6.758-1.779 10.628-2.358 7.567-1.131 16.003-2.393 23.062-9.188q-.33.616-.684 1.22" fill="#fff"/>
  <path d="M710.089 71.087c2.521.109 6.723-.608 13.548-3.725 0 0-6.036-2.823-10.259-2.182a9.1 9.1 0 0 0-4.554 2.25 2.09 2.09 0 0 0-.603 2.257 2.08 2.08 0 0 0 1.868 1.4" fill="#000C2A"/>
  <path d="M722.293 67.96c-1.67-.848-5.336-2.53-8.637-2.817 4.205-.483 9.981 2.219 9.981 2.219q-.69.315-1.344.597" fill="#fff"/>
  <path d="M14.03 334.653s3.098 1.162 1.54 11.665c0 0-3-3.431-3.381-6.323-.382-2.892 1.84-5.342 1.84-5.342m13.765 17.693c-2.056 1.813-.79 8.432-.79 8.432.896-1.684 1.122-3.174 1.512-5.042 2.897 2.228 6.356 3.288 6.356 3.288s-2.504-6.632-7.078-6.678" fill="#000C2A"/>
  <path d="M15.548 327.306c4.172 3.869 12.54 17.434 12.966 28.431-3.48-9.504-13.258-14.796-17.819-19.79-6.594-7.199-1.203-14.315 4.853-8.641" fill="#4ABEFF"/>
  <path d="M28.505 355.539c-.523-10.922-9.359-21.192-13.505-25.038-2.9-2.716-5.75-3.233-7.21-2.244.66-3.13 4.087-4.39 7.758-.951 4.146 3.846 12.44 17.273 12.957 28.233" fill="#B5F6FF"/>
  <path d="M20.48 333.463c1.58.688 3.947 2.386 7.206 6.344 0 0-4.552-.073-6.954-1.731a6.2 6.2 0 0 1-2.124-2.745 1.427 1.427 0 0 1 1.872-1.868" fill="#000C2A"/>
  <path d="M25.244 338.342c-2.162-2.676-3.495-4.327-4.764-4.879 1.58.688 3.948 2.387 7.206 6.344 0 0-.53-.008-1.324-.085q-.593-.73-1.118-1.38" fill="#B5F6FF"/>
  <path clip-rule="evenodd" d="M72.831 290.692c-5.057-2.254-9.849-2.986-9.319-.245.513 2.651 3.052 5.119 6.936 7.363q.03.224.138.421c1.084 2.093 3.3 4.873 7.682 6.163 0 0-.364-1.689-1.743-3.663q.699.286 1.425.566c2.64 1.016 5.087 2.025 7.04 2.83l1.05.432c1.017 2.885 3.001 6.618 6.872 9.861 0 0-.235-3.601-2.651-8.005 3.764 1.405 6.199.361 6.199.361-4.057-4.256-7.615-5.179-9.923-5.21-1.669-2.04-3.949-4.497-6.576-6.617q-.209-.168-.425-.335a13.6 13.6 0 0 0 2.545-.392s-3.047-3.744-8.93-3.585a1 1 0 0 0-.32.055" fill="#1433D6" fill-rule="evenodd"/>
  <path clip-rule="evenodd" d="M21.293 279.904c-2.945-3.859-4.54-7.799-2.093-7.901 2.365-.099 4.984 1.569 7.684 4.428q.197-.02.387.033c2.004.501 4.824 1.83 6.81 5.307 0 0-1.514.031-3.477-.746q.386.538.771 1.102a280 280 0 0 0 3.838 5.433l.581.809c2.667.284 6.253 1.221 9.804 3.868 0 0-3.12.528-7.366-.643 1.96 2.927 1.562 5.216 1.562 5.216-4.452-2.601-5.959-5.449-6.452-7.412-2.077-1.011-4.635-2.46-6.975-4.272a24 24 0 0 1-.372-.296c.124.689.19 1.438.18 2.252 0 0-3.81-1.843-4.864-6.893a.9.9 0 0 1-.018-.285" fill="#0BE1FF" fill-rule="evenodd"/>
  <path d="M65.757 358.206a3.6 3.6 0 0 1-.352-1.376 19 19 0 0 1-2.31-.602 123 123 0 0 1-7.87-2.867c.437 1.283.713 2.616.82 3.967-3.38-2.517-4.867-4.394-5.5-5.659a1.3 1.3 0 0 1-.123-.467 21.6 21.6 0 0 1-5.106-3.316c-4.9-4.735.726-9.45 6.904-4.335l1.523 1.298c.588-.2 1.21-.28 1.83-.235 2.388.202 5.37 2.525 5.37 2.525q-1.923.396-3.881.543c3.264 2.879 6.633 5.945 8.8 7.904 1.397-1.743 6.243-.218 6.243-.218a16.8 16.8 0 0 1-4.362 1.817 172 172 0 0 0 3.524 4.639s-4.325-.858-5.51-3.618m559.939 198.817c-.964.202.969.18 0 0-2.923 7.85-6.572 16.288-13.768 22.516 3.414-2.955 7.385-3.974 10.149-3.522-8.007 15.4-14.347 8.459-14.347 8.459-33.58 20.256-32.769-2.642-12.286-11.683.402-6.397 10.498-10.295 10.498-10.295-.106 2.713-1.891 7.052-5.856 8.804 10.753-2.918 18.97-9.495 23.349-15.772-2.835-3.699 2.606-12.706 2.606-12.706.956 3.134 2.546 6.679.627 11.673 5.127-3.761 11.94-6.794 11.94-6.794s-4.203 10.935-12.912 9.32m73.85-340.025c-1.156.241 1.16.215 0 0-3.502 9.404-7.874 19.513-16.495 26.973 4.09-3.539 8.847-4.761 12.158-4.219-9.592 18.448-17.186 10.134-17.186 10.134-40.229 24.266-39.257-3.165-14.719-13.996.481-7.663 12.577-12.333 12.577-12.333-.128 3.25-2.267 8.448-7.017 10.546 12.882-3.495 23.389-10.583 28.636-18.103-3.396-4.431 2.458-16.013 2.458-16.013 1.542 2.513 3.842 6.53 1.542 12.513 6.142-4.506 13.514-6.667 13.514-6.667s-5.036 13.099-15.468 11.165M734.544 27.26c-.256.03-.515.007-.761-.065q-.326.556-.715 1.066a67 67 0 0 1-2.851 3.488 8.8 8.8 0 0 1 2.159.287c-1.877 1.27-3.093 1.692-3.848 1.79a.7.7 0 0 1-.259-.02 11.6 11.6 0 0 1-2.588 2.004c-3.273 1.648-4.67-2.044-.978-4.274l.929-.543c.003-.334.073-.664.206-.971.525-1.177 2.233-2.279 2.233-2.279a17 17 0 0 1-.412 2.067c2.04-1.147 4.194-2.314 5.573-3.068-.638-1.018.996-3.208.996-3.208.169.834.219 1.688.149 2.537 1.621-.495 2.98-.967 2.98-.967s-1.202 2.044-2.813 2.156" fill="#0BE1FF"/>
  <path d="M688.545 122.605s1.322-15.696 12.098-24.12c0 0-3.775 10.443 7.465 4.317 0 0-17.231 19.876-19.563 19.803" fill="#000C2A"/>
  <path d="M699.003 99.888c-.634 2.572-1.308 8.568 8.098 3.442 0 0-1.284 1.725-3.207 4.244 2.462-2.751 4.214-4.772 4.214-4.772-11.24 6.127-7.465-4.316-7.465-4.316a25 25 0 0 0-1.64 1.402" fill="#fff"/>
  <path d="M716.449 100.825c8.906.3 15.889-12.82 15.889-12.82l-12.456 5.67 1.564-14.058s-13.903 20.908-4.997 21.208" fill="#000C2A"/>
  <path d="M724.83 97.385c4.538-3.799 7.508-9.38 7.508-9.38l-12.456 5.67 1.564-14.057s-.93 1.36-1.564 2.383l-.382 12.5 10-4s-1.118 3.351-4.67 6.884" fill="#fff"/>
  <path d="M697.718 128.793s8.729 2.007 15.137-8.917c0 0-6.862.696-12.289 4.867a8.5 8.5 0 0 0-2.848 4.05" fill="#000C2A"/>
  <path d="M680.733 142.427c-3.67.361 2.473-12.241 6.061-17.884 3.769-.142 9.83.869 10.857 8.553-9.223 8.445-16.918 9.331-16.918 9.331" fill="#B5F6FF"/>
  <path d="M679.609 140.832c.726-3.187 3.428-8.586 5.765-12.635.985-1.709 2.826-2.837 4.757-2.437 2.927.606 6.085 2.368 7.393 6.553-1.323-6.97-7.094-7.907-10.731-7.77-2.754 4.333-7.015 12.768-7.184 16.289" fill="#fff"/>
  <path d="M696.188 128.725c-2.282-3.722-6.51-4.289-9.397-4.182 10.978-17.26 33.027-30.487 33.027-30.487-12.811 26.776-23.63 34.669-23.63 34.669" fill="#4ABEFF"/>
  <path d="M697.65 133.097a10.9 10.9 0 0 0-1.461-4.371s10.838-7.891 23.631-34.669c-6.199 20.372-14.687 32.191-22.17 39.04" fill="#1433D6"/>
  <path d="M699.741 109.42a154 154 0 0 1 2.268-2.055c3.84 1.931 4.67 5.024 4.67 5.024a17.7 17.7 0 0 0-6.938-2.969m-.055 12.255s-1.064-3.961-6.346-5.717c0 0-1.264 1.417-2.178 2.563 0 0 4.11.049 8.524 3.154m3.655-4.788s-.977-3.629-5.698-5.481a59 59 0 0 0-2.317 2.362 17.2 17.2 0 0 1 8.015 3.119" fill="#B5F6FF"/>
  <path d="M701.604 123.863s12.359 1.799 20.027-14.109c0 0-9.457 1.745-16.527 8.157a11.8 11.8 0 0 0-3.5 5.952" fill="#000C2A"/>
  <path d="M706.147 117.012c5.816-3.952 11.834-4.552 14.353-5.012.233-.437.906-1.778 1.131-2.246 0 0-8.563 1.581-15.484 7.258" fill="#fff"/>
  <path d="M689.922 136.006a1.523 1.523 0 1 0-1.688-1.337 1.52 1.52 0 0 0 1.688 1.337" fill="#000C2A"/>
  <path d="M689.255 129.024c.315-.698.194-1.434-.27-1.644-.465-.21-1.098.186-1.413.884-.316.698-.195 1.434.269 1.643.465.21 1.098-.186 1.414-.883m-1.264-4.483c9.29-13.708 24.871-25.585 31.204-30.1-3.657 2.29-22.519 14.56-32.403 30.102a17 17 0 0 1 1.199-.002" fill="#fff"/>
  <path d="M713.886 229.68c9.334 12.163 8.355 34.667 7.451 41.614 18.291-13.315 17.491-42.907 3.283-50.526 4.075 7.498 2.643 17.397 2.16 25.774-.525-6.526-3.64-11.822-12.894-16.862" fill="#000C2A"/>
  <path d="M716.787 234.396c-.833-1.689-1.794-3.275-2.9-4.716 9.253 5.04 12.368 10.336 12.893 16.862-.084 1.186.066 1.859 0 3-.466-5.79-2.97-10.612-9.993-15.146m18.366 9.855c.412-10.15-3.344-19.629-10.533-23.483a20.2 20.2 0 0 1 1.632 4.011c5.462 3.871 8.565 11.279 8.901 19.472" fill="#fff"/>
  <path d="M696.903 294.572c.755-6.972 3.993-17.274 15.293-26.151 0 0 2.548 14.401-9.478 28.62a3.31 3.31 0 0 1-3.81.894 3.32 3.32 0 0 1-2.005-3.363" fill="#000C2A"/>
  <path d="M711.31 280.588a63 63 0 0 0-1.526-10.144 49 49 0 0 1 2.412-2.023s.897 5.071-.886 12.167" fill="#fff"/>
  <path d="M715.919 303.573c1.712-6.796 6.361-16.532 18.762-23.772 0 0-3.181 28.159-17.263 27.414v-.002s-1.077-.919-1.347-1.574a3.3 3.3 0 0 1-.152-2.066" fill="#000C2A"/>
  <path d="M731.411 281.887a48 48 0 0 1 3.27-2.086s-1.171 10.368-5.239 18.355c1.623-5.672 1.962-12.035 1.969-16.269" fill="#fff"/>
  <path d="M709.759 317.077c-17.821-1.901-17.528-15.573-17.524-15.81a95.6 95.6 0 0 1 10.641-12.729 79 79 0 0 0 7.48-8.841c6.203-8.469 16.335-23.827 16.456-33.97-.005.002 10.975 43.389-17.053 71.35" fill="#4ABEFF"/>
  <path d="m709.515 317.05.245.027c27.688-27.622 17.307-70.3 17.057-71.331l-.005-.019c-.12 10.143-10.252 25.501-16.455 33.97q-.302.412-.606.822c5.073-5.043 7.912-9.313 10.332-12.953l.417-.627c7.748-11.623 12.795 22.663-10.985 50.111" fill="#fff"/>
  <path d="M712.418 280.478c1.895-.146 7.343.667 11.137 7.143-1.408-6.315-4.821-9.605-11.137-7.143m-8.283 8.004c3.408-.212 12.676.871 16.607 9.723.213-8.647-4.408-13.135-16.607-9.723m-6.896 9.187c3.127-.386 12.01.386 17.688 9.932-1.77-9.507-7.097-14.228-17.688-9.932m12.519 19.409c-7.14 7.113-16.771 13.221-29.756 17.368 0 0-.651-14.618 12.236-33.179-.013.219-.306 13.911 17.52 15.811" fill="#B5F6FF"/>
  <path d="M707.782 318.962a63 63 0 0 0 1.976-1.884c-17.826-1.899-17.533-15.592-17.52-15.811a85 85 0 0 0-2.177 3.298c.372 2.489 2.854 12.407 17.721 14.397" fill="#fff"/>
  <path d="M701.915 323.328c1.285-.933 1.858-2.335 1.278-3.132s-2.091-.688-3.377.245-1.858 2.335-1.278 3.133c.579.797 2.091.687 3.377-.246m-11.589-10.631c.748-1.4.649-2.911-.221-3.375s-2.182.295-2.93 1.695-.649 2.912.221 3.376 2.181-.295 2.93-1.696m9.887-3.468c1.569-5.689 6.739-21.635 17.468-30.988 0 0-9.011 15.288 2.512 5.268 0 0-13.234 20.953-18.661 26.483a.786.786 0 0 1-.958.136.78.78 0 0 1-.361-.899" fill="#000C2A"/>
  <path d="M695.001 313.502c2.659-3.244 1.257.39 1.999.998.741.609 3.658-1.744 1 1.5s-8.915 9.459-9.657 8.85c-.741-.609 4-8.105 6.658-11.348" fill="#fff"/>
  <path d="M634.78 129.1s4.832-.32 7.085-15.695c0 0-5.653 3.541-7.408 7.432s.323 8.263.323 8.263" fill="#000C2A"/>
  <path d="M640.177 121.223c.305-2.018.464-4.32.404-6.937a25 25 0 0 1 1.284-.881c-.472 3.222-1.057 5.783-1.688 7.818" fill="#fff"/>
  <path d="M657.05 114.417c-2.218-3.342 2.081-12.218 2.081-12.218.628 2.721.526 5.513.369 8.301 4.94-2.05 10.087-2.837 10.087-2.837s-6.054 8.424-12.537 6.754" fill="#000C2A"/>
  <path d="M668.78 108.675c.518-.61.807-1.011.807-1.011s-5.147.786-10.087 2.836c.157-2.787.259-5.58-.369-8.301 0 0-.329.68-.758 1.734.486 2.723.545 6.241-.181 7.767 4.6-1.909 9.687-2.865 10.588-3.025" fill="#fff"/>
  <path d="M633.714 138.741c6.986-3.419 19.72-13.548 25.639-27.279.225-.524-.503-.939-.892-.523-8.692 9.318-20.03 8.949-27.899 13.645-12.28 7.303-7.73 19.549 3.152 14.157" fill="#1433D6"/>
  <path d="M623.236 135.219c.222-3.047 2.444-5.731 7.326-8.634 2.837-1.693 6.24-2.85 9.84-4.073C654 117.89 658.65 111.5 658.65 113c1.85-2.999.389-2.64-.15-2.2-5.486 5.881-12.066 8.043-18.123 9.916-3.539 1.094-6.913 2.137-9.815 3.869-5.43 3.229-7.569 7.424-7.326 10.634" fill="#fff"/>
  <path d="M643.222 132.196c2.506-.296 6.54-1.677 12.777-5.846 0 0-6.409-1.82-10.475-.512a9.1 9.1 0 0 0-4.136 2.95 2.09 2.09 0 0 0-.234 2.325 2.09 2.09 0 0 0 2.068 1.083" fill="#000C2A"/>
  <path d="M654.945 127.042c-1.885-.518-5.945-1.485-9.258-1.254 4.072-1.21 10.312.562 10.312.562q-.538.36-1.054.692" fill="#fff"/>
  <path d="M664.875 500.472s7.167.091 12.282-22.335c0 0-8.753 4.567-11.797 10.105s-.485 12.23-.485 12.23" fill="#000C2A"/>
  <path d="M674.54 487.384c.9-2.552 1.785-5.602 2.617-9.247 0 0-1.981 1.033-4.386 2.713a92 92 0 0 1 1.769 6.534" fill="#fff"/>
  <path d="M704.661 477.262c-3.14-6.08 0-20.262 0-20.262.559 4.731 6.624 8.302 5.839 13 8.759-2.557 16.68-1.859 16.68-1.859s-11.835 13.159-22.519 9.121" fill="#000C2A"/>
  <path d="M669 515c11.462-4.531 35.5-22 41-45-16.5 16-37.702 18.744-50.836 25.24-18.971 9.346-6.85 26.449 9.836 19.76" fill="#4ABEFF"/>
  <path d="M654.613 514.816c-5.365-4.577-4.799-13.484 7.887-17.815 3.838-1.456 9.915-3.978 13.5-5.001 11.5-4 20-6.5 30-15.499a51.8 51.8 0 0 1-3.8 10.63c3.53-5.22 6.328-10.977 7.8-17.131-11.47 11.122-25.212 15.839-36.937 19.863-5.142 1.765-9.895 3.396-13.899 5.377-12.526 6.17-11.498 15.722-4.551 19.576" fill="#fff"/>
  <path d="M680.38 508.655c3.732-.145 9.845-1.713 19.535-7.139 0 0-9.246-3.432-15.399-1.975a13.47 13.47 0 0 0-6.445 3.871 3.09 3.09 0 0 0-.616 3.403 3.085 3.085 0 0 0 2.925 1.84" fill="#000C2A"/>
  <path d="M698.508 502.29c-2.244-1.074-5.045-2.236-7.886-2.958 4.803.518 9.292 2.184 9.292 2.184q-.716.402-1.406.774" fill="#fff"/>
  <path d="M697.393 415.639s5.806.074 9.949-18.093c0 0-7.09 3.7-9.556 8.186-2.465 4.487-.393 9.907-.393 9.907" fill="#000C2A"/>
  <path d="M705.043 405.537a83 83 0 0 0-1.1-5.9 36 36 0 0 1 3.399-2.091c-.728 3.195-1.508 5.825-2.299 7.991" fill="#fff"/>
  <path d="M731.169 395.475c-2.207-4.273 4.078-14.291 4.078-14.291.393 3.326-.187 5.906-.739 9.208 6.156-1.798 12.487-1.327 12.487-1.327s-8.317 9.248-15.826 6.41" fill="#000C2A"/>
  <path d="M745.995 390.065c.689-.652 1-1 1-1s-6.331-.47-12.487 1.327q.1-.6.2-1.172c.478-2.767.884-5.113.539-8.035 0 0-.388.619-.938 1.614.225 2.643-.156 4.851-.601 7.421-.066.382-.641 1.88-.708 2.28 6.5-2.5 12.995-2.435 12.995-2.435" fill="#fff"/>
  <path d="M704 424.5c9.286-3.67 22.81-16.398 30.509-34.108-11.743 13.324-31.103 15.748-41.742 21.01-15.368 7.571-2.283 18.517 11.233 13.098" fill="#F4FEFF"/>
  <path d="M717.733 414.868c6.241-6.088 12.434-14.49 16.775-24.476-8.226 9.335-20.192 13.32-30.278 16.679-2.758.918-5.376 1.79-7.738 2.711 1.494-.314 3.062-.611 4.679-.918 6.153-1.168 13.022-2.472 19.224-5.318 2.022-.928 4.855 1.606 3.594 3.439a73 73 0 0 1-6.256 7.883" fill="#fff"/>
  <path d="M707.183 421.695c3.023-.118 7.975-1.387 15.824-5.783 0 0-7.49-2.78-12.473-1.6a10.9 10.9 0 0 0-5.222 3.136 2.51 2.51 0 0 0-.499 2.757 2.5 2.5 0 0 0 2.37 1.49" fill="#000C2A"/>
  <path d="M722.212 416.352c-2.082-.822-6.47-2.346-10.241-2.271 4.866-.459 11.036 1.831 11.036 1.831q-.402.226-.795.44" fill="#fff"/>
  <g clip-path="url(#a)" fill="#1433D6">
    <path d="m196.209 363.677 20.471-10.338 20.472 10.338 20.471-10.236-.102-20.472 20.574-10.235V302.16l-20.472-10.236v-20.369l-20.471-10.338-20.472 10.338-20.471-10.338-20.472 10.338v20.369l20.472 10.236 20.471-10.236 20.472 10.236v20.471l-20.472 10.338-20.471-10.235-20.472 10.235v20.472z"/>
    <path d="M134.694 353.444v20.471l20.574 10.236 20.472-10.338v-20.472l-20.574-10.133z"/>
    <path d="M216.885 217c-49.131 0-89.767 37.36-94.885 85.161h22.212c5.015-35.62 35.62-63.154 72.673-63.154 40.534 0 73.391 32.959 73.391 73.492s-32.959 73.391-73.391 73.391c-15.251 0-29.479-4.709-41.147-12.693v25.18c12.487 6.039 26.408 9.52 41.147 9.52 52.612 0 95.5-42.786 95.5-95.5S269.497 217 216.885 217m284.348 85.877v-20.676h15.354v-10.236h-15.354v-16.991h-12.795v16.991h-12.18v10.236h12.18v28.148c-.102 2.559.41 5.118 1.433 7.472.819 1.74 2.15 3.276 3.89 4.299 1.638 1.024 3.378 1.638 5.22 1.945 1.843.307 3.685.512 5.63.512q1.995 0 3.992-.307c.921-.205 1.842-.41 2.661-.717v-10.031c-.716.307-1.331.41-2.047.614-.921.205-1.945.307-2.968.307-2.15 0-3.583-.716-4.095-2.149q-.921-2.764-.921-5.834zm45.649 23.032c-5.016 0-10.031-1.024-14.433-3.378-4.094-2.15-7.472-5.425-9.826-9.417-2.457-4.299-3.685-9.212-3.582-14.228a27.4 27.4 0 0 1 3.582-14.125c2.354-3.992 5.732-7.165 9.826-9.212 4.504-2.252 9.417-3.378 14.433-3.276 3.685 0 7.37.512 10.85 1.741a21.55 21.55 0 0 1 7.881 4.81c2.047 1.843 3.787 4.095 5.016 6.551 1.126 2.252 1.637 4.606 1.74 7.063v.409h-12.693v-1.126c-.204-1.637-.921-3.173-1.944-4.503-1.126-1.433-2.662-2.559-4.299-3.276a17.2 17.2 0 0 0-6.449-1.228c-2.559 0-5.118.614-7.37 1.842a13.33 13.33 0 0 0-5.322 5.323c-1.331 2.764-2.047 5.834-1.945 8.905 0 3.071.614 6.141 1.945 8.905 1.228 2.354 2.968 4.299 5.22 5.63 2.252 1.228 4.913 1.945 7.472 1.842 2.457 0 4.811-.307 7.063-1.33 1.74-.819 3.173-2.048 4.196-3.583.922-1.535 1.433-3.173 1.638-4.913h12.795c0 2.456-.614 5.015-1.638 7.267a23.9 23.9 0 0 1-4.913 6.654c-2.354 2.149-5.016 3.787-7.984 4.81-3.48 1.229-7.267 1.945-10.952 1.843zm78.203-47.905c-3.275-3.787-8.086-5.63-14.33-5.63-3.992 0-7.882.819-11.362 2.661-2.252 1.229-4.196 2.866-5.834 4.811v-31.014h-12.795v76.052h12.795v-28.865c0-2.252.512-4.504 1.535-6.551 1.024-1.843 2.457-3.378 4.299-4.402 2.15-1.125 4.504-1.637 6.858-1.637 3.992 0 6.858 1.126 8.496 3.48 1.74 2.252 2.559 5.527 2.559 9.826v28.046H630.1v-31.424c0-6.653-1.637-11.771-4.913-15.456zm-224.164-25.489v30.912h-28.046v-30.912h-12.794v30.809h12.794v10.236h-12.794v30.605h12.794V293.56h28.046v30.605h12.795v-71.65zm-40.84 30.807h-12.795v10.236h12.795zm112.284 9.934v-4.094c.102-3.685-1.023-7.268-3.378-10.031-2.354-2.764-5.425-4.914-8.905-6.039-3.889-1.331-8.086-2.048-12.18-1.945-4.402 0-8.701.716-12.795 2.149-3.48 1.229-6.551 3.48-8.905 6.449a15.54 15.54 0 0 0-3.173 10.338h12.692c0-2.968 1.024-5.118 3.071-6.551 2.149-1.433 5.118-2.047 9.007-2.047 3.89 0 6.654.614 8.701 1.842.921.512 1.74 1.229 2.252 2.15s.818 1.945.818 3.071c0 1.33-1.228 2.149-3.582 2.763-4.094.819-8.189 1.331-12.385 1.638a39.8 39.8 0 0 0-10.85 2.456 17.15 17.15 0 0 0-7.779 5.323 13.3 13.3 0 0 0-2.866 8.7c0 2.969.818 5.835 2.456 8.291a16 16 0 0 0 6.858 5.323 28.6 28.6 0 0 0 10.133 1.842c3.071 0 6.04-.409 9.008-1.228a22.5 22.5 0 0 0 7.063-3.378 17 17 0 0 0 2.047-1.74v5.323h12.692zm-12.795 6.96v1.536c.103 2.559-.614 5.22-2.047 7.369-1.433 1.843-3.275 3.378-5.527 4.197-2.354.921-4.811 1.433-7.37 1.331-3.275 0-5.732-.512-7.37-1.638a5.06 5.06 0 0 1-1.842-2.047q-.614-1.228-.614-2.764c0-1.023.205-1.945.716-2.866.512-.819 1.229-1.535 2.15-1.945 2.764-1.126 5.63-1.842 8.7-2.047 2.969-.307 5.937-.716 8.905-1.126a160 160 0 0 0 4.402-.921v.819zm-94.372 71.447v-19.448h-5.117v-4.81h5.117v-2.15c0-1.228.205-2.559.615-3.685a7.4 7.4 0 0 1 1.535-2.764c.614-.716 1.331-1.33 2.252-1.74.819-.511 1.74-.818 2.661-1.023a13.6 13.6 0 0 1 2.866-.307c.717 0 1.433 0 2.047.102.307 0 .614.205 1.024.307v4.811s-.614-.102-1.024-.205c-.512 0-.921-.102-1.433-.102-.819 0-1.535.102-2.252.409-.511.205-1.023.614-1.433 1.126-.307.512-.614 1.024-.716 1.638s-.205 1.331-.205 2.047v1.74h6.653v4.811h-6.653v19.448h-5.937zm26.817.511c-2.355 0-4.606-.512-6.756-1.638a10.63 10.63 0 0 1-4.504-4.503c-1.126-2.048-1.637-4.299-1.637-6.551s.511-4.504 1.637-6.551c1.126-1.843 2.662-3.378 4.504-4.402 2.047-1.125 4.401-1.637 6.756-1.637 2.354 0 4.606.512 6.755 1.637 1.843 1.024 3.48 2.559 4.504 4.402 1.126 1.945 1.74 4.197 1.638 6.551 0 2.252-.512 4.503-1.638 6.551a11.9 11.9 0 0 1-4.504 4.503c-2.047 1.126-4.401 1.638-6.755 1.638m0-4.913c1.228 0 2.559-.307 3.582-.921 1.024-.614 1.843-1.536 2.457-2.662.614-1.228.921-2.661.921-4.094q0-2.15-.921-3.992a5.63 5.63 0 0 0-2.457-2.661 7.5 7.5 0 0 0-3.582-.921c-1.229 0-2.559.307-3.583.921a5.96 5.96 0 0 0-2.354 2.661c-.614 1.228-.921 2.661-.921 3.992 0 1.433.307 2.764.921 4.094a5.97 5.97 0 0 0 2.354 2.662c1.126.614 2.354 1.023 3.583 1.023zm31.835-20.065c-.717-.205-1.536-.205-2.355-.205a8.9 8.9 0 0 0-3.275.614c-.921.41-1.74.922-2.457 1.638-.409.41-.819.921-1.126 1.433v-3.275h-5.936v24.258h5.936v-12.078c0-.819.103-1.74.307-2.559s.512-1.637 1.024-2.354c.512-.716 1.126-1.331 1.945-1.638.921-.409 2.047-.716 3.071-.614.614 0 1.228 0 1.842.307.307 0 .614.205.921.41l1.126-5.528s-.716-.307-1.023-.409m31.32 25.591c-2.15 0-4.197-.307-6.244-1.126-1.74-.716-3.173-1.945-4.094-3.48-1.024-1.74-1.536-3.685-1.433-5.732v-1.331h5.936v1.228c0 .717 0 1.536.308 2.252.204.717.614 1.331 1.125 1.945 1.229 1.024 2.866 1.433 4.402 1.331 1.535 0 3.071-.205 4.401-1.024.512-.307.921-.819 1.228-1.33q.462-.768.308-1.843c0-.512 0-1.023-.308-1.433-.204-.409-.409-.921-.818-1.228-.819-.819-1.843-1.536-2.866-1.945a29 29 0 0 0-4.197-1.535 22.4 22.4 0 0 1-4.811-2.15c-1.433-.819-2.559-1.945-3.48-3.275-.921-1.433-1.331-3.173-1.331-4.913s.41-3.481 1.433-4.914 2.457-2.456 4.095-3.07c1.842-.717 3.889-1.126 5.936-1.024 2.048 0 4.197.307 6.142 1.126 1.638.614 3.071 1.842 4.197 3.275 1.023 1.638 1.535 3.481 1.535 5.425v1.536h-5.937v-1.228c0-.717 0-1.433-.307-2.048-.205-.614-.614-1.228-1.126-1.74-1.228-.921-2.764-1.33-4.299-1.228-1.535 0-2.968.205-4.299 1.024a2.83 2.83 0 0 0-1.126 1.33c-.307.512-.409 1.126-.307 1.74 0 1.024.307 1.945 1.024 2.662a8.2 8.2 0 0 0 2.763 1.842 59 59 0 0 0 4.095 1.535c1.842.615 3.582 1.331 5.22 2.252a9.1 9.1 0 0 1 3.378 3.173c.819 1.433 1.228 3.071 1.228 4.811 0 1.843-.512 3.583-1.535 5.016a8.7 8.7 0 0 1-4.197 3.173c-1.945.716-4.094 1.126-6.244 1.023zm25.384-10.234v-9.724h7.166v-4.811h-7.166v-7.984h-5.936v7.984h-5.732v4.811h5.732v13.306c0 1.229.204 2.457.716 3.583a5.65 5.65 0 0 0 1.74 2.047c.717.409 1.536.819 2.457.921.921.205 1.74.205 2.661.205.614 0 1.228 0 1.843-.205.409 0 .819-.205 1.228-.307v-4.708s-.614.204-1.024.307c-.409 0-.921.102-1.33.102s-.819 0-1.126-.205a3.1 3.1 0 0 1-.819-.818c-.307-.922-.41-1.843-.41-2.764zm89.463-14.125v12.488c0 1.126-.205 2.252-.717 3.275-.409 1.024-1.125 1.945-2.047 2.662-.819.716-1.944 1.023-3.07 1.023a5.34 5.34 0 0 1-2.969-.921c-.716-.614-1.228-1.331-1.433-2.252-.307-1.024-.409-2.047-.409-2.968v-13.409h-5.937v15.046c0 1.126.102 2.252.409 3.378.205 1.126.717 2.15 1.331 3.173.717.921 1.638 1.74 2.661 2.252q1.997.921 4.299.921c1.433 0 2.764-.307 4.095-.921 1.228-.512 2.252-1.331 3.173-2.354.205-.307.409-.512.614-.819v3.583h5.937v-24.259h-5.937zm33.367 5.22c-.921-1.74-2.251-3.173-3.992-4.197-1.637-1.023-3.582-1.535-5.527-1.535-1.842 0-3.685.512-5.22 1.433-.921.512-1.638 1.126-2.354 1.945v-2.969h-5.937v34.29h5.937v-12.999c.716.819 1.535 1.433 2.354 2.047a10.26 10.26 0 0 0 5.22 1.433c1.945 0 3.89-.512 5.527-1.433 1.741-1.024 3.174-2.559 3.992-4.299 1.126-2.15 1.638-4.606 1.536-6.96 0-2.355-.41-4.709-1.536-6.858zm-6.448 12.385c-.614.614-1.228 1.024-2.047 1.331s-1.536.409-2.354.409c-1.024 0-2.15-.307-3.071-.819-.921-.511-1.74-1.228-2.252-2.149-.614-.921-.921-2.047-.921-3.173v-2.559c0-1.126.307-2.252.921-3.173s1.331-1.638 2.354-2.15c.921-.511 1.945-.818 2.969-.818.818 0 1.637.102 2.354.409.716.307 1.433.716 2.047 1.331 1.228 1.126 1.842 3.07 1.842 5.527 0 2.456-.614 4.401-1.842 5.63zm22.211 7.162c-1.433 0-2.763-.205-4.094-.512-1.228-.307-2.354-.819-3.48-1.433a8.6 8.6 0 0 1-2.354-2.354 6.35 6.35 0 0 1-.922-3.276v-.511h5.937v.409s.102.921.307 1.331.614.716 1.024.921c1.126.512 2.456.819 3.685.716.819 0 1.637 0 2.354-.307a3.17 3.17 0 0 0 1.842-.921c.205-.205.41-.409.512-.614s.205-.512.205-.819c0-.409-.103-.921-.41-1.228-.307-.41-.614-.614-1.126-.819-1.433-.512-2.968-.921-4.606-1.126-1.126-.205-2.252-.512-3.377-.819-1.024-.307-2.048-.819-3.071-1.331-.921-.511-1.638-1.228-2.252-2.047-.614-.921-.819-1.944-.819-3.07 0-1.433.41-2.866 1.433-3.992s2.354-2.048 3.787-2.457c1.74-.614 3.48-.921 5.323-.921 1.74 0 3.48.307 5.118.921 1.535.512 2.763 1.433 3.787 2.661 1.024 1.126 1.535 2.662 1.433 4.095v.409h-5.937v-.307s0-.614-.204-.921a2.25 2.25 0 0 0-.512-.819 3.76 3.76 0 0 0-1.74-1.024 7.8 7.8 0 0 0-2.15-.307c-.716 0-1.433 0-2.149.205-.614.102-1.229.409-1.843.716-.204.205-.409.41-.512.615-.102.307-.204.511-.204.818 0 .308 0 .615.204.819.103.307.308.512.512.614.614.41 1.331.819 2.047.922.922.204 1.945.511 3.071.614 1.126.205 2.252.409 3.378.716s2.149.717 3.071 1.331c.921.512 1.74 1.228 2.252 2.15.614.921.921 2.047.921 3.173a6.44 6.44 0 0 1-.921 3.377 7.75 7.75 0 0 1-2.457 2.355c-1.126.614-2.252 1.126-3.48 1.33-1.331.307-2.662.512-4.095.512zm-76.56-10.235v-9.519h7.267v-5.118h-7.267v-7.984h-5.937v7.984h-3.071c-1.228 0-4.197 0-5.323.307-1.023.307-2.047.819-2.763 1.638-.41.409-.819.921-1.126 1.433v-3.276h-5.937v24.259h5.937v-12.078c0-.819.102-1.74.307-2.559s.512-1.638 1.024-2.354c.511-.717 1.126-1.331 1.944-1.74a7.3 7.3 0 0 1 2.969-.615h5.936v13c0 1.228.205 2.456.717 3.582a5.6 5.6 0 0 0 1.74 2.047c.717.41 1.535.819 2.457.922.921.204 1.74.204 2.661.204.614 0 1.228 0 1.842-.204.41 0 .819-.205 1.229-.307v-4.709s-.615.205-1.024.307c-.409 0-.921.103-1.331.103s-.818 0-1.126-.205a3.1 3.1 0 0 1-.818-.819c-.307-.921-.41-1.842-.41-2.764v-1.637zm-29.583 9.621v-16.479c0-1.74-.512-3.378-1.535-4.709-1.126-1.33-2.559-2.251-4.197-2.866a18.2 18.2 0 0 0-5.732-.921c-2.047 0-4.094.307-5.937 1.024a9.54 9.54 0 0 0-4.196 3.07 8.15 8.15 0 0 0-1.536 4.811h5.937c0-.614 0-1.228.307-1.74a2.83 2.83 0 0 1 1.126-1.33c1.228-.717 2.764-1.126 4.197-1.024 1.433 0 2.763.205 3.992.921.409.205.819.614 1.023 1.024.205.409.41.921.41 1.433 0 .614-.512 1.023-1.638 1.228-1.945.409-3.787.614-5.732.819-1.74.102-3.48.512-5.118 1.126a9 9 0 0 0-3.685 2.456c-.921 1.126-1.433 2.662-1.33 4.095 0 1.433.409 2.763 1.126 3.889.818 1.126 1.944 1.945 3.173 2.457 1.535.614 3.07.921 4.708.819 1.433 0 2.866-.205 4.197-.614 1.228-.308 2.354-.922 3.275-1.638.41-.307.819-.614 1.126-1.024v3.071h5.732zm-5.937-10.645c0 1.126-.204 2.354-.818 3.276-.615.921-1.536 1.74-2.662 2.149a10 10 0 0 1-3.48.614c-1.228 0-2.354-.204-3.378-.716a1.63 1.63 0 0 1-.819-1.024 2.84 2.84 0 0 1-.307-1.33c0-.512 0-.922.307-1.331.205-.41.615-.717 1.024-.921 1.228-.512 2.661-.819 3.992-.922 1.433-.102 2.764-.307 4.094-.511.717-.103 1.433-.307 2.047-.41z"/>
  </g>
  <path d="M251.101 463.749s49.093-4.059 80.666 24.763c0 0-36.267-7.512-10.767 26.488 0 0-68.909-44.03-69.899-51.251" fill="#000C2A"/>
  <path d="M251.106 463.749C251.553 463.731 293 463 314.5 484c0 0-15.106.565 4.044 27.402C320.941 512.88 322 514.5 322 514.5c-24.73-31.428 9.766-25.988 9.766-25.988-31.385-28.65-80.082-24.81-80.66-24.763" fill="#fff"/>
  <path d="M439.145 515.11c-21.385 23.454-67.603 29.663-82.089 30.353 33.801 32.421 93.816 20.005 104.163-11.727-13.796 11.037-34.491 11.727-51.737 13.796 13.107-3.449 22.765-11.727 29.663-32.422" fill="#000C2A"/>
  <path d="M377.5 542.97c19.87-3.572 46.768-11.542 61.645-27.86-2.428 7.285-5.198 13.03-8.34 17.569-15.276 9.534-36.684 10.569-53.305 10.291m74.554 5.105c4.235-4.143 7.413-8.964 9.165-14.339-11.918 9.534-28.984 11.347-44.528 12.998-2.449.26-4.861.517-7.208.798 9.622 2.282 28.217 4.604 42.571.543" fill="#fff"/>
  <path d="M254.66 463.716a146 146 0 0 0-29.41-9.642c-11.726-2.499-23.84-3.893-34.59-2.824a10.32 10.32 0 0 0-8.089 5.382 10.31 10.31 0 0 0-.019 9.714c6.202 11.528 18.696 29.564 41.856 46.147 32.134-9.364 32.554-35.188 30.252-48.777" fill="#9FDDFF"/>
  <path d="M398.411 551.676s-44.377-4.371-98.868-57.35a155.9 155.9 0 0 0-44.883-30.61c1.272 7.638 1.704 19.144-3.869 29.427 0 0 46.831 49.987 147.62 58.533" fill="#4ABEFF"/>
  <path clip-rule="evenodd" d="M271.863 472.795s6.048 15.893.12 30.088c0 0 7.89-8.169 6.242-25.981 0 0-5.748-3.845-6.362-4.107m21.852 16.135c-.653 11.204-9.82 19.486-9.82 19.486 6.655-9.286 5.344-23.289 5.344-23.289s4.113 3.356 4.488 3.807zm1.779 28.014s8.514-7.536 9.096-17.82l-1.931-1.843c-.488-.426-2.123-1.965-2.123-1.965s1.098 13.073-5.042 21.628" fill="#B5F6FF" fill-rule="evenodd"/>
  <path d="M371.706 548.29c-79.498-13.581-118.155-52.335-120.717-54.971-.271.348-.542.696-.816 1.016-3.786 6.379-10.002 12.178-19.923 16.172 28.835 19.759 73.465 36.961 141.456 37.783" fill="#4ABEFF"/>
  <path d="M371.706 548.289c-79.499-13.58-118.155-52.334-120.717-54.97-.271.348-.542.696-.816 1.016-3.787 6.379-10.003 12.178-19.924 16.172a65 65 0 0 1-5.741 1.996c32.649 23.36 86.513 43.849 173.968 39.17a321 321 0 0 1-26.77-3.384" fill="#1433D6"/>
  <path d="M230.184 510.51a65 65 0 0 1-5.741 1.996c32.649 23.36 86.513 43.849 173.968 39.17a315 315 0 0 1-26.762-3.407c-67.933-.801-112.563-18.003-141.465-37.759m-6.326-22.476a4.75 4.75 0 0 0 6.088-2.841 4.75 4.75 0 0 0-2.847-6.084 4.75 4.75 0 0 0-6.088 2.84 4.75 4.75 0 0 0 2.847 6.085" fill="#000C2A"/>
  <path d="M249.367 515.113s-5.451 39.099 45.061 63.068c0 0-5.717-29.864-26.147-52.081a37.55 37.55 0 0 0-18.914-10.987" fill="#000C2A"/>
  <path d="M288.124 574.958c-1.608-9.471-5.388-25.693-13.906-41.679 15.627 20.958 20.21 44.902 20.21 44.902a118 118 0 0 1-6.304-3.223M181.702 458.886s-.829-17.789 39.047-7.64c0 0 20.858 4.107 36.235 12.312a.07.07 0 0 0 .016-.058c16.638 7.499 29.491 18.076 42.544 30.826 51.946 50.505 94.701 56.835 98.581 57.316q-.225-.026-.641-.069c-6.925-.719-45.033 2.992-94.984-45.573-11.051-10.795-21.5-32-46.728-40.712 2.053 4.431 5.364 18.641-7.272 31.712 5.555-7.486 6.5-29.839-6.5-34.5-19.787-7.095-57-20-60.298-3.614" fill="#fff"/>
  <path d="M242.113 469.927c.668-1.45-.561-3.44-2.744-4.444s-4.493-.642-5.161.808.562 3.44 2.745 4.444 4.493.642 5.16-.808" fill="#fff"/>
  <path d="M560.696 449.284s12.099-39.704 44.528-55.437c0 0-15.51 24.812 16.841 15.257 0 0-55.403 41.658-61.369 40.18" fill="#000C2A"/>
  <path d="M594.73 400.202c-2.838 8.013-3.116 19.411 23.379 11.586 0 0-11.851 8.91-26.081 19.071 15.164-10.572 30.037-21.756 30.037-21.756-32.351 9.556-16.841-15.256-16.841-15.256a67.4 67.4 0 0 0-10.494 6.355" fill="#fff"/>
  <path d="M644.642 408.633c22.777 5.707 48.036-24.224 48.036-24.224l-35.231 7.708 11.817-35.35s-47.399 46.159-24.622 51.866" fill="#000C2A"/>
  <path d="M646.036 383.915c6.912-8.445 14.465-15.415 14.465-15.415l-4.5 25.5 29.975-2.685c4.176-3.913 6.702-6.907 6.702-6.907l-35.23 7.708 11.817-35.349s-14.105 13.736-23.229 27.148" fill="#fff"/>
  <path d="M580.339 471.882s21.377 10.007 43.937-14.587c0 0-18.063-2.006-34.355 5.732a22.35 22.35 0 0 0-9.582 8.855" fill="#000C2A"/>
  <path d="M529.585 496.023c-9.655-1.106 13.152-30.167 25.52-42.718 9.789 1.723 24.842 7.685 23.231 28.051-28.436 16.646-48.751 14.667-48.751 14.667" fill="#9FDDFF"/>
  <path d="M578.131 481.476c.092-17.993-12.695-23.772-23.131-20.477-8.912 2.815-26.403 24.645-27.588 33.419-2.01-6.426 16.852-30.112 27.693-41.113 9.789 1.722 24.842 7.685 23.231 28.05z" fill="#fff"/>
  <path d="M576.992 469.286c-3.816-10.854-14.393-14.657-21.889-15.981 37.841-38.384 101.972-60.242 101.972-60.242-47.837 61.882-80.083 76.223-80.083 76.223" fill="#4ABEFF"/>
  <path d="M578.336 481.357a28.85 28.85 0 0 0-1.343-12.07s32.292-14.325 80.083-76.223c-27.256 49.048-55.67 74.793-78.74 88.293" fill="#1433D6"/>
  <path d="M596.838 421.52a406 406 0 0 1 6.981-4.037c8.822 7.102 9.248 15.53 9.248 15.53a46.6 46.6 0 0 0-16.229-11.493m-6.931 31.541s-.546-10.792-13.181-18.242c0 0-4.042 2.949-7.031 5.395 0 0 10.561 2.403 20.212 12.847m12.068-10.308s-.505-9.892-11.643-17.278c-2.607 1.633-5.159 3.295-7.276 4.801a45.4 45.4 0 0 1 18.919 12.477" fill="#B5F6FF"/>
  <path d="M593.638 459.757s30.844 11.484 59.41-25.252c0 0-25.331-.742-47.096 11.859a31.17 31.17 0 0 0-12.314 13.393" fill="#000C2A"/>
  <path d="M650.464 437.691a98 98 0 0 0 2.584-3.187s-17.805-.521-36.386 6.736c12.507-3.213 24.626-3.8 33.802-3.549" fill="#fff"/>
  <path d="M556.815 484.569a4.013 4.013 0 0 0 4.385-3.602 4.013 4.013 0 0 0-3.607-4.382 4.013 4.013 0 0 0-4.385 3.603 4.01 4.01 0 0 0 3.607 4.381" fill="#000C2A"/>
  <path d="M561.758 467.513c1.135-1.535 1.226-3.392.204-4.146-1.023-.755-2.772-.123-3.907 1.413-1.135 1.535-1.226 3.391-.203 4.146s2.771.122 3.906-1.413m-3.882-16.948c37.254-30.729 85.624-44.066 85.624-44.066-5.883 10.587-10.947 20.121-15.503 28.699l-2.538 4.775c10.463-12.605 21.126-28.031 31.617-46.91l-.016.018.015-.018s-61.085 20.819-99.199 57.502" fill="#fff"/>
  <path d="M692.455 191.23c-12.417-10.79-36.582-11.212-44.081-10.697 15.455-18.72 47.095-15.93 54.326-.216-7.765-4.854-18.459-3.967-27.461-3.997 6.954.989 12.422 4.671 17.216 14.91" fill="#000C2A"/>
  <path d="M689.255 188.829a29 29 0 0 1 3.2 2.401c-4.794-10.239-10.262-13.921-17.216-14.91 1.225.004 2.482-.009 3.759-.022q1.2-.013 2.421-.02c-1.488-.01-2.968.005-4.421.02-1.277.013-2.534.026-3.759.022 6.381.908 11.511 4.082 16.016 12.509m-12.838-21.322c11.6-.287 22.422 4.419 26.283 12.81a21 21 0 0 0-2.751-1.441c-4.116-7.027-13.381-11.117-23.532-11.369" fill="#fff"/>
  <path d="M621.849 205.181c7.516-.353 18.76-3.148 29.005-14.67 0 0-15.256-3.67-31.27 8.281a3.554 3.554 0 0 0 2.265 6.389" fill="#000C2A"/>
  <path d="M640.14 199.547c3.561-2.153 7.196-5.08 10.714-9.036 0 0-1.078-.259-2.961-.415-2.417 3.777-5.052 6.888-7.753 9.451" fill="#fff"/>
  <path d="M615.816 186.31c6.921-2.941 16.47-9.483 22.09-23.829 0 0-15.58 1.844-26.468 18.633a3.55 3.55 0 0 0 .272 4.21 3.56 3.56 0 0 0 4.106.986" fill="#000C2A"/>
  <path d="M628.456 177.567c3.55-3.687 6.904-8.585 9.45-15.086 0 0-1.056.125-2.812.607-1.717 5.691-4.034 10.473-6.638 14.479" fill="#fff"/>
  <path d="M598.586 189.944c.872 19.21 15.533 19.789 15.787 19.801a102.5 102.5 0 0 0 14.327-10.566 85 85 0 0 1 9.957-7.433c9.476-6.09 26.585-15.938 37.455-15.404-.001.005-45.75-14.588-77.526 13.602" fill="#4ABEFF"/>
  <path d="M604.751 185.106c20.839-11.539 43.891-9.263 58.025-6.032 4.819-1.799 9.472-2.922 13.336-2.732l-.02-.006c-1.018-.315-40.544-12.52-71.341 8.77" fill="#fff"/>
  <path d="M606.746 187.309c3.254.895 11.62 5.018 12.713 15.31 2.73-8.731-.286-14.806-12.713-15.31m9.038-6.244c3.255.896 11.621 5.019 12.714 15.311 2.729-8.732-.286-14.806-12.714-15.311m12.925-3.996c2.374.663 8.478 3.714 9.279 11.321 1.988-6.452-.214-10.943-9.279-11.321" fill="#B5F6FF"/>
  <path d="M598.586 189.944c-8.084 7.182-15.254 17.098-20.543 30.733 0 0 15.612 1.652 36.332-10.938-.235.001-14.918-.58-15.789-19.795" fill="#fff"/>
  <path d="M598.586 189.944c-8.586 6.556-24.838 30.354-20.543 30.733 0 0 15.612 1.653 36.332-10.937-.235 0-14.919-.581-15.789-19.796" fill="#B5F6FF"/>
  <path d="M598.586 189.944c-7.447 5.686-20.662 24.344-21.233 29.441 1.69-4.051 6.81-11.315 12.013-17.325 4.634-4.06 7.634-3.56 8.443-.276.618 2.51-2.644 5.207-6.265 8.053-2.597 2.041-4.866 3.824-4.404 4.615.854.94 3.527-1.29 6.46-3.736 3.251-2.711 7.045-6.347 8.586-4.911 3.733 3.479 8.845 4.04 12.114 3.979l.075-.045c-.235 0-14.919-.58-15.789-19.795" fill="#fff"/>
  <path d="M600.47 214.552c1.401-.499 2.286-1.608 1.975-2.477s-1.698-1.17-3.099-.671-2.286 1.608-1.976 2.478c.311.869 1.698 1.169 3.1.67m-7.609-12.612c1.042-1.061 1.352-2.445.692-3.092-.659-.646-2.038-.31-3.08.751s-1.352 2.445-.693 3.092c.66.646 2.039.31 3.081-.751m13.507-1.26c6.196-1.309 23.61-5.804 34.328-16.684 0 0-16.961 8.652-5.478-3.034 0 0-23.304 12.805-29.581 18.256a.84.84 0 0 0 .731 1.462m-233.557-1.538s14.756-20.254 36.369-22.832c0 0-13.527 11.255 6.821 12.19 0 0-40.08 12.661-43.19 10.642" fill="#000C2A"/>
  <path d="M403.154 177.507c-1.566 2.433-7.088 12.73 12.929 11.123.273-.084.417-.13.417-.13-20.347-.935-7.321-12.189-7.321-12.189a40.4 40.4 0 0 0-6.025 1.196" fill="#fff"/>
  <path d="M457.836 155.331c-1.835 13.439-16.507 26.494-21.407 30.135 19.626 3.739 37.629-14.779 33.611-28.609-2.169 7.198-9.242 12.293-14.776 17.075 3.755-4.309 5.14-9.546 2.572-18.601" fill="#000C2A"/>
  <path d="M456.773 159.806a24.6 24.6 0 0 0 1.063-4.475c2.503 8.824 1.251 14.023-2.29 18.271q-.52.445-1.046.898c3.322-3.812 3.95-7.601 2.273-14.694m4.209 18.918c7.159-5.95 11.18-14.562 9.058-21.867-.466 1.546-1.158 2.995-2.013 4.365.611 5.986-2.156 12.473-7.045 17.502" fill="#fff"/>
  <path d="M373.98 197.762a74.7 74.7 0 0 0-13.497 8.118c-4.866 3.689-9.429 7.888-12.588 12.383a5.23 5.23 0 0 0-.606 4.906c.311.805.816 1.52 1.469 2.084a5.26 5.26 0 0 0 2.279 1.145c6.508 1.445 17.616 2.638 31.712-.769 7.058-15.478-2.789-24.222-8.769-27.867" fill="#9FDDFF"/>
  <path d="M455.692 171.656s-16.437 15.639-54.986 18.999a79.4 79.4 0 0 0-26.727 7.131c3.366 2.048 7.953 5.713 10.066 11.28.002-.025 34.828-1.46 71.647-37.41" fill="#4ABEFF"/>
  <path d="M408.11 199.724s-.093-5.748-3.874-9.413l-1.33.118c-.324.042-1.458.16-1.458.16s5.401 3.93 6.662 9.135m-11.444-8.616c4.108 3.981 4.256 10.261 4.256 10.261-1.365-5.652-7.206-9.805-7.206-9.805s2.667-.462 2.962-.443zm-13.469 3.049s8.152 2.951 11.647 9.963c0 0-.527-5.757-7.946-11.046 0 0-3.395.932-3.701 1.083" fill="#B5F6FF"/>
  <path d="M445.484 180.836c-31.668 26.101-59.471 28.096-61.341 28.199q.071.335.134.669c1.199 3.579 1.394 7.906-.389 13.053a32 32 0 0 1-1.137 2.872c19.863-4.8 45.669-18.733 72.942-53.972a165 165 0 0 1-10.209 9.179" fill="#1433D6"/>
  <path d="M383.888 222.757a32 32 0 0 1-1.137 2.872c19.863-4.8 45.669-18.733 72.942-53.972a165 165 0 0 1-10.209 9.179c-22.91 25.902-44.368 37.364-61.596 41.921" fill="#000C2A"/>
  <path d="M400.706 190.655c38.548-3.359 54.985-18.998 54.985-18.998l-.162.158.164-.158c-8.742 11.295-17.332 20.4-25.625 27.718 4.275-4.522 8.585-9.772 12.932-15.875 0 0-10.535 7.183-45.913 7.55a80 80 0 0 1 3.619-.395" fill="#fff"/>
  <path d="M371.78 218.017a2.418 2.418 0 1 0 .305-4.827 2.418 2.418 0 0 0-.305 4.827M393 218c-.5 3.5 12.294 13.992 38.342 2.534 0 0-13.41-7.759-28.773-7.256-3.792.137-9.069 1.222-9.569 4.722" fill="#000C2A"/>
  <path d="M428.008 221.911a78 78 0 0 0 3.334-1.377s-9.735-5.633-22.118-6.989c7.878 2.263 14.506 5.755 18.784 8.366m-80.148 2.344s-7.134-5.623 10.055-17.58c0 0 12.348-9.668 21.73-11.282-.019-.001-31.335 13.851-31.785 28.862m26.804-15.854c2.291-1.043 3.585-3.123 2.89-4.645s-3.115-1.91-5.405-.867-3.585 3.123-2.891 4.645c.695 1.522 3.115 1.91 5.406.867" fill="#fff"/>
  <path d="M178.227 402.453s1.081 4.72 16.619 4.507c0 0-4.392-5.02-8.512-6.136-4.121-1.117-8.107 1.629-8.107 1.629" fill="#000C2A"/>
  <path d="M192.994 406.962q.89.011 1.852-.002s-4.392-5.02-8.513-6.136a8 8 0 0 0-2.135-.267c3.052.937 6.978 4.588 8.796 6.405" fill="#fff"/>
  <path d="M167.274 403.225c4.799 6.805 19.142 15.303 28.461 20.382a36 36 0 0 0 7.791 3.149l-2.824-3.362c-4.792-6.363-13.593-17.935-19.949-25.524-9.157-10.968-20.528-4.535-13.479 5.355" fill="#F4FEFF"/>
  <path d="m203.526 426.756-2.824-3.362c-4.791-6.363-13.593-17.936-19.949-25.524-6.943-8.317-15.16-6.628-15.653-1.014.727-4.725 8.604-4.996 15.4 3.144 1.88 2.244 3.829 4.911 5.889 7.728 4.902 6.708 10.429 14.27 17.137 19.028" fill="#fff"/>
  <path d="M208.206 436.03s-2.253-4.192-4.675-9.289l-3.915-1.076c-.833 6.641 8.59 10.365 8.59 10.365" fill="#000C2A"/>
  <path d="M208.206 436.031s-2.252-4.192-4.674-9.289l-3.987-1.347c-.824 6.644 8.661 10.636 8.661 10.636" fill="#000C2A"/>
  <path d="M203.532 426.742c1.34 2.82 1.647 5.66 1.653 7.634 1.652 1.079 3.021 1.655 3.021 1.655s-2.252-4.192-4.674-9.289" fill="#fff"/>
  <path d="M211.752 424.985s-8.011-4.216-11.043-1.588l2.817 3.359a29.6 29.6 0 0 0 8.226-1.771" fill="#000C2A"/>
  <path d="M211.752 424.985s-8.011-4.216-11.043-1.588l2.817 3.359a29.6 29.6 0 0 0 8.226-1.771" fill="#000C2A"/>
  <path d="M200.709 423.397c3.032-2.628 11.043 1.588 11.043 1.588q-1.097.406-2.219.724c-2.685-1.78-6.856-4.018-8.824-2.312m0 0 2.817 3.359zm2.817 3.359h.007z" fill="#fff"/>
  <path d="M175.243 411.577c.69 2.427 2.692 6.191 7.797 11.689 0 0 .782-6.617-1.154-10.424a9.1 9.1 0 0 0-3.568-3.615 2.1 2.1 0 0 0-1.188-.288 2.08 2.08 0 0 0-1.887 2.638" fill="#000C2A"/>
  <path d="M178.317 409.226c1.148.641 1.56 1.52 2.053 2.573.155.331.319.679.515 1.043 1.474 2.899 1.373 7.426 1.241 9.422q.44.49.914 1.002s.781-6.617-1.155-10.424a9.1 9.1 0 0 0-3.568-3.616" fill="#fff"/>
  <path d="M136.774 289.985c1.467.249 3.809 1.18 7.366 3.824 0 0-3.836.883-6.198-.007a5.37 5.37 0 0 1-2.35-1.861 1.22 1.22 0 0 1-.074-1.38 1.23 1.23 0 0 1 1.256-.576" fill="#000C2A"/>
  <path d="M136.8 289.989c1.468.256 3.804 1.191 7.34 3.82 0 0-.507.116-1.266.222-1.999-1.545-4.991-3.846-6.074-4.042" fill="#fff"/>
  <path d="M131.268 294.617c.98 1.123 2.205 3.321 3.291 7.618 0 0-3.533-1.74-4.802-3.92a5.37 5.37 0 0 1-.644-2.927 1.232 1.232 0 0 1 2.155-.771m10.911 8.757c4.209 2.282 3.878 10.262 3.878 10.262l-4.231-6.015-3.098 6.941s-.759-13.471 3.451-11.188" fill="#000C2A"/>
  <path d="M142.213 303.392c4.173 2.308 3.844 10.244 3.844 10.244l-1.829-2.6c.444-2.621.514-6.239-2.015-7.644" fill="#fff"/>
  <path d="M126.329 293.396c10.754 5.014 14.695 11.355 15.322 13.899 1.282-3.372-2.248-15.228-8.966-21.014-11.775-10.142-19.799.847-6.356 7.115" fill="#F4FEFF"/>
  <path d="M120.785 282.996c2.203-1.554 6.684-1.208 11.9 3.285 6.718 5.786 10.248 17.642 8.966 21.014 1.282-3.372-3.933-14.509-10.651-20.294-4.173-3.595-7.831-4.55-10.215-4.005" fill="#fff"/>
  <defs>
    <clipPath id="a">
      <path d="M122 217h508v190.897H122z" fill="#fff"/>
    </clipPath>
  </defs>
</svg>